<svg width="286" height="72" viewBox="0 0 286 72" fill="none" xmlns="http://www.w3.org/2000/svg">
<path fill-rule="evenodd" clip-rule="evenodd" d="M91.2804 30.5081C83.5758 30.5081 83.5758 41.6534 91.2804 41.6534C98.9851 41.6534 98.9851 30.5081 91.2804 30.5081ZM160.643 45.0364V27.2031H156.655V34.4062H147.921V27.2031H143.953V45.0364H147.921V37.8332H156.655V45.0364H160.643ZM218.295 32.4131C219.124 31.5758 220.011 30.7013 220.836 29.8776C218.92 28.0708 216.58 27.2166 214.327 27.0539C209.928 26.7353 205.94 28.342 205.604 32.2334C205.593 34.6266 207.088 36.1621 209.782 36.9994C211.735 37.6129 215.041 37.6637 216.512 38.6705C217.725 39.5078 217.483 40.9077 216.271 41.5348C214.344 42.5043 209.772 41.8331 207.442 39.162C206.643 39.9586 205.794 40.8162 204.996 41.6128C207.085 44.2059 210.57 45.3042 213.825 45.216C215.924 45.1279 217.599 44.755 218.842 44.0737C220.5 43.172 221.376 41.7111 221.424 39.684C221.424 37.0604 219.824 35.8299 217.504 35.0706C215.578 34.4469 212.303 34.2537 210.89 33.5317C209.184 32.6571 209.561 31.1114 211.11 30.542C212.853 29.9081 216.243 30.3115 218.295 32.4165V32.4131ZM178.78 45.0364H183.006L175.193 27.2031H170.542L162.763 45.0364H166.961L168.646 41.145L168.908 40.5314L170.44 36.996H170.45L172.917 31.308L176.018 38.5925H171.84L170.501 41.667H177.329L178.787 45.0398L178.78 45.0364ZM238.671 30.4708V27.2031H224.478V45.0364H238.671V41.7585H228.521V37.8298H237.044V34.3995H228.521V30.4708H238.671ZM202.176 45.0364V27.1827H198.313V39.4467L188.696 27.1827H184.976V45.0364H188.839V33.0842L198.286 45.0364H202.176ZM133.412 30.1996V34.3995H137.994V37.8298H133.412V42.0195H129.974V37.8298H125.381V34.3995H129.974V30.1996H133.412ZM41.5161 30.5081V27.1827H26.8303V45.0364H41.5161V41.7212H30.934V37.8298H39.8617V34.3995H30.934V30.5081H41.5161ZM48.9591 27.1827H44.8554V45.0364H57.846V41.5687H48.9591V27.1861V27.1827ZM69.5389 26.9421C63.8385 26.9421 59.3713 30.9691 59.3713 36.118C59.3713 41.8636 64.5519 45.294 69.5695 45.294C74.9437 45.294 77.9264 41.8433 78.2253 41.4501V34.8198H68.8255V37.9315H74.4987V40.0162L74.4205 40.084C73.2757 41.1111 71.5398 41.6806 69.5389 41.6806C66.1689 41.6806 63.5294 39.2095 63.5294 36.0604C63.5294 32.9114 66.0331 30.5826 69.4811 30.5826C71.6009 30.5826 73.15 31.1487 74.2099 32.3114L77.7633 30.5996C75.7692 28.2369 72.8613 26.9387 69.5389 26.9387V26.9421ZM107.835 30.2504H113.141C114.517 30.2504 115.624 31.3928 115.624 32.8063C115.624 34.2198 114.496 35.3723 113.121 35.3723H107.835V30.2504ZM112.428 38.8501H107.835V45.0398H103.925V27.1861H114.123C117.214 27.1861 119.449 29.5488 119.449 32.8063C119.449 34.9113 118.437 36.7655 116.793 37.64L116.205 37.8434L121.145 45.0025H116.677L112.431 38.8535L112.428 38.8501ZM95.4895 23.5829L88.4608 25.5625L87.8154 23.2574L94.6538 20.6067L95.1837 22.5083L95.4929 23.5829H95.4895ZM91.2804 26.9183C78.3102 26.9183 78.3102 45.2703 91.2804 45.2703C104.251 45.2703 104.251 26.9183 91.2804 26.9183ZM259.173 45.0398V27.1861H255.31V39.4501L245.693 27.1861H241.973V45.0398H245.836V33.0876L255.283 45.0398H259.173Z" fill="white"/>
</svg>
